<?xml version="1.0" encoding="utf-8"?>
<!-- Generator: Adobe Illustrator 23.0.2, SVG Export Plug-In . SVG Version: 6.00 Build 0)  -->
<svg version="1.1" id="Layer_1" xmlns="http://www.w3.org/2000/svg" xmlns:xlink="http://www.w3.org/1999/xlink" x="0px" y="0px"
	 viewBox="0 0 261.2 42.5" style="enable-background:new 0 0 261.2 42.5;" xml:space="preserve">
<style type="text/css">
	.st0{fill:#0033A0;}
	.st1{fill:none;stroke:#0033A0;stroke-width:0.25;stroke-miterlimit:10;}
</style>
<title>DECA_R_Baseline_kleur_CMYK</title>
<path class="st0" d="M169.8,6.6h5.4c3.2,0,5.2,1.8,5.2,4.6l0,0c0,3.1-2.5,4.7-5.5,4.7h-2.7v4.4h-2.4V6.6z M175,13.7
	c1.8,0,2.9-1,2.9-2.4l0,0c0-1.6-1.1-2.4-2.9-2.4h-2.8v4.9L175,13.7z"/>
<path class="st0" d="M181.7,17.3L181.7,17.3c0-2.2,1.7-3.3,4.2-3.3c0.9,0,1.9,0.1,2.8,0.4v-0.2c0-1.5-0.9-2.2-2.6-2.2
	c-1,0-2,0.2-2.9,0.6l-0.6-1.9c1.2-0.6,2.5-0.8,3.9-0.8c1.2-0.1,2.5,0.3,3.4,1.1c0.8,0.9,1.2,2,1.1,3.2v6.1h-2.3V19
	c-0.8,1-2.1,1.5-3.4,1.5C183.4,20.5,181.7,19.4,181.7,17.3z M188.7,16.6v-0.7c-0.7-0.3-1.5-0.4-2.3-0.4c-1.5,0-2.4,0.6-2.4,1.7l0,0
	c0,1,0.9,1.6,2,1.6C187.5,18.7,188.8,17.9,188.7,16.6L188.7,16.6z"/>
<path class="st0" d="M193.2,15.2L193.2,15.2c-0.1-2.9,2.2-5.4,5.2-5.4c0.1,0,0.1,0,0.2,0c1.6-0.1,3.1,0.6,4.1,1.8l-1.5,1.6
	c-0.6-0.8-1.6-1.3-2.6-1.3c-1.7,0.1-3.1,1.5-3,3.2c0,0,0,0,0,0.1l0,0c-0.1,1.7,1.2,3.2,2.9,3.3c0.1,0,0.1,0,0.2,0c1,0,2-0.5,2.7-1.3
	l1.4,1.4c-1,1.3-2.6,2-4.2,1.9C195.6,20.5,193.2,18.1,193.2,15.2C193.2,15.2,193.2,15.2,193.2,15.2z"/>
<path class="st0" d="M204.8,6h2.4v8.5l4.3-4.6h2.9l-4.1,4.2l4.2,6.1h-2.7l-3.1-4.5l-1.5,1.5v3h-2.4V6z"/>
<path class="st0" d="M215.1,15.2L215.1,15.2c-0.1-2.8,2-5.2,4.9-5.4c0,0,0.1,0,0.1,0c3.3,0,4.9,2.6,4.9,5.5c0,0.2,0,0.4,0,0.7h-7.6
	c0.1,1.5,1.5,2.7,3,2.6c1.1,0,2.1-0.4,2.8-1.2l1.4,1.2c-1,1.3-2.6,2-4.2,1.9c-2.8,0.1-5.2-2.1-5.3-4.9C215,15.5,215,15.3,215.1,15.2
	z M222.7,14.4c0-1.4-1.2-2.6-2.6-2.7c-1.5,0.1-2.6,1.2-2.7,2.7L222.7,14.4z"/>
<path class="st0" d="M226.8,15.1L226.8,15.1c0-3.4,2.3-5.3,4.8-5.3c1.4,0,2.7,0.7,3.5,1.8V6h2.4v14.2h-2.4v-1.7
	c-0.8,1.2-2.1,1.9-3.5,1.9C229.2,20.5,226.8,18.6,226.8,15.1z M235.2,15.1L235.2,15.1c0.1-1.7-1.2-3.2-2.9-3.3c0,0-0.1,0-0.1,0
	c-1.7,0-3,1.3-3,3c0,0.1,0,0.2,0,0.3l0,0c-0.1,1.7,1.1,3.1,2.8,3.3c0.1,0,0.1,0,0.2,0C233.9,18.4,235.2,17,235.2,15.1
	C235.2,15.2,235.2,15.2,235.2,15.1z"/>
<path class="st0" d="M170.1,36.6v-5.4h-1.3v-2h1.3v-2.9h2.4v2.8h2.8v2h-2.8v5.1c-0.1,0.6,0.3,1.2,0.9,1.3c0.1,0,0.2,0,0.3,0
	c0.5,0,1-0.1,1.5-0.3V39c-0.6,0.4-1.4,0.5-2.1,0.5C171.3,39.6,170.1,38.8,170.1,36.6z"/>
<path class="st0" d="M176.6,34.3L176.6,34.3c0-3,2.5-5.5,5.5-5.5s5.5,2.5,5.5,5.5l0,0c0,3-2.4,5.4-5.4,5.4c0,0-0.1,0-0.1,0
	c-2.9,0.1-5.4-2.2-5.5-5.2C176.6,34.4,176.6,34.4,176.6,34.3z M185.2,34.3L185.2,34.3c0.1-1.8-1.3-3.2-3-3.3c0,0-0.1,0-0.1,0
	c-1.7,0-3.1,1.4-3.1,3.1c0,0.1,0,0.1,0,0.2l0,0c-0.1,1.8,1.3,3.2,3.1,3.3c0,0,0.1,0,0.1,0c1.7,0,3.1-1.3,3.1-3.1
	C185.2,34.5,185.2,34.4,185.2,34.3z"/>
<path class="st0" d="M195.9,25.3h2.5v2.2h-2.5V25.3z M196,29.1h2.4v10.3H196V29.1z"/>
<path class="st0" d="M201.3,29.1h2.4v1.6c0.7-1.1,1.9-1.8,3.1-1.8c1.3-0.1,2.5,0.7,3.1,1.9c0.8-1.2,2.1-1.8,3.5-1.8
	c2.2,0,3.6,1.4,3.6,3.9v6.6h-2.4v-5.9c0-1.6-0.8-2.5-2.1-2.5s-2.2,0.9-2.2,2.5v5.8H208v-5.9c0-1.6-0.8-2.5-2.1-2.5s-2.2,1-2.2,2.5
	v5.8h-2.4L201.3,29.1z"/>
<path class="st0" d="M219.9,29.1h2.4v1.7c0.8-1.2,2.1-1.9,3.5-1.9c2.4,0,4.8,1.9,4.8,5.3l0,0c0,3.4-2.3,5.3-4.8,5.3
	c-1.4,0-2.7-0.7-3.5-1.8v4.7h-2.4L219.9,29.1z M228.1,34.3L228.1,34.3c0.2-1.6-1-3.1-2.7-3.3c-0.1,0-0.2,0-0.3,0
	c-1.7,0.1-3.1,1.5-3,3.2c0,0,0,0.1,0,0.1l0,0c-0.1,1.7,1.2,3.2,2.9,3.3c0,0,0.1,0,0.1,0c1.7,0,3-1.4,3-3
	C228.1,34.4,228.1,34.4,228.1,34.3z"/>
<path class="st0" d="M232.2,36.4L232.2,36.4c0-2.2,1.7-3.3,4.2-3.3c0.9,0,1.9,0.1,2.8,0.4v-0.2c0-1.5-0.9-2.2-2.6-2.2
	c-1,0-2,0.2-2.9,0.6l-0.6-1.8c1.2-0.6,2.5-0.9,3.9-0.8c1.2-0.1,2.5,0.3,3.4,1.2c0.8,0.9,1.2,2,1.1,3.2v6.1h-2.3v-1.3
	c-0.8,1-2.1,1.5-3.4,1.5C233.9,39.6,232.2,38.5,232.2,36.4z M239.2,35.7V35c-0.7-0.3-1.5-0.4-2.3-0.4c-1.5,0-2.4,0.6-2.4,1.7l0,0
	c0,1,0.9,1.6,2,1.6C238.1,37.9,239.2,37,239.2,35.7z"/>
<path class="st0" d="M243.8,34.3L243.8,34.3c0-2.9,2.3-5.3,5.2-5.4c0,0,0.1,0,0.1,0c1.6-0.1,3.1,0.6,4.1,1.8l-1.5,1.5
	c-0.6-0.8-1.6-1.3-2.6-1.3c-1.7,0.1-3.1,1.5-3,3.2c0,0,0,0.1,0,0.1l0,0c-0.1,1.7,1.2,3.2,2.9,3.3c0.1,0,0.1,0,0.2,0
	c1,0,2-0.5,2.7-1.3l1.4,1.5c-1,1.3-2.6,2-4.2,1.9c-2.9,0-5.3-2.3-5.3-5.2C243.7,34.4,243.7,34.4,243.8,34.3z"/>
<path class="st0" d="M256.1,36.6v-5.4h-1.3v-2h1.3v-2.9h2.4v2.8h2.8v2h-2.8v5.1c-0.1,0.6,0.3,1.2,0.9,1.3c0.1,0,0.3,0,0.4,0
	c0.5,0,1-0.1,1.5-0.3V39c-0.6,0.4-1.4,0.5-2.1,0.5C257.3,39.6,256.1,38.8,256.1,36.6z"/>
<path class="st0" d="M76.1,20.1V20c0-11,8.2-20,20-20c5.7-0.2,11.2,2,15.2,6l-4.4,5c-3.1-2.9-6.4-4.8-10.8-4.8
	c-7.4,0-12.8,6.1-12.8,13.7V20c0,7.6,5.4,13.7,12.8,13.7c4.8,0,7.8-1.9,11.1-5l4.4,4.4c-4,4.2-8.5,6.9-15.7,6.9
	C84.5,40.1,76.1,31.3,76.1,20.1z"/>
<path class="st0" d="M14.5,0.7h-0.8l-2.3,6.2h3.1c8.1,0,13.5,5.6,13.5,13.2v0.1c0,7.6-5.3,13.1-13.5,13.1H6.8V0.7H0v38.7h14.5
	C26.6,39.4,35,30.9,35,20v-0.1C35,9,26.6,0.7,14.5,0.7z"/>
<polygon class="st0" points="68.6,22.9 68.6,16.8 56,16.8 53.8,22.9 "/>
<polygon class="st0" points="49.2,6.7 71.1,6.7 71.1,0.7 42.4,0.7 42.4,39.4 71.4,39.4 71.4,33.3 49.2,33.3 "/>
<polygon class="st0" points="154.5,39.4 140.2,0.4 129.4,0.4 115.3,39.4 122.3,39.4 134.8,5.2 141.7,23.9 133.4,23.9 131.2,30 
	143.9,30 147.4,39.4 "/>
<path class="st0" d="M150.2,2h1.4c0.4,0,0.7,0.1,1,0.3c0.2,0.2,0.3,0.4,0.3,0.7l0,0c0,0.5-0.3,0.9-0.7,1l0.9,1.2h-0.7l-0.8-1.1h-0.7
	v1.1h-0.6L150.2,2z M151.6,3.5c0.4,0,0.6-0.2,0.6-0.5l0,0c0-0.3-0.2-0.5-0.6-0.5h-0.8v1L151.6,3.5z"/>
<circle class="st1" cx="151.6" cy="3.6" r="3"/>
</svg>
